<svg id="Ebene_1" data-name="Ebene 1" xmlns="http://www.w3.org/2000/svg" viewBox="0 0 4320 4320"><defs><style>.cls-1{fill:#00e7ff;}.cls-2{fill:#00ff30;}</style></defs><title>Download</title><path class="cls-1" d="M4150.07,1319.13c-108.82-257.26-264.51-488.23-462.74-686.46s-429.2-353.92-686.46-462.74C2734.34,57.18,2451.38,0,2160,0s-574.34,57.18-840.93,169.93C1061.81,278.75,830.84,434.44,632.62,632.67s-353.87,429.2-462.69,686.46C57.18,1585.66,0,1868.62,0,2160s57.18,574.34,169.93,840.93c108.82,257.26,264.46,488.22,462.69,686.45s429.19,353.87,686.45,462.69C1585.66,4262.82,1868.56,4320,2160,4320s574.34-57.18,840.87-169.93c257.26-108.82,488.23-264.46,686.46-462.69s353.92-429.19,462.74-686.45C4262.82,2734.34,4320,2451.44,4320,2160S4262.82,1585.66,4150.07,1319.13ZM2160,3887.69c-954.2,0-1727.69-773.49-1727.69-1727.69S1205.8,432.31,2160,432.31,3887.69,1205.86,3887.69,2160,3114.14,3887.69,2160,3887.69Z"/><polygon class="cls-2" points="2936.12 2920.93 2160.05 3651.39 1383.88 2920.93 1794.72 2920.93 1794.72 668.62 2525.28 668.62 2525.28 2920.93 2936.12 2920.93"/></svg>