<svg id="Stage_1" xmlns="http://www.w3.org/2000/svg" viewBox="0 0 3168.09 4320"><defs><style>.cls-1{fill:#3f3f3f;}</style></defs><title>Lock</title><path id="Lock" class="cls-1" d="M3426.93,1776.73V1260.67C3426.93,565.55,2861.32,0,2166.25,0S905.71,565.55,905.71,1260.67v516.06C702.78,2043,582.27,2375.42,582.27,2736,582.27,3610.8,1291.48,4320,2166.32,4320s1584-709.2,1584-1584.05C3750.36,2375.42,3629.86,2043,3426.93,1776.73ZM1850.67,3409.94l16.21-60.25,71.28-264.55,91.7-340.43C1888.8,2690,1788.73,2553,1788.73,2392.54c0-208.51,169.08-377.53,377.59-377.53s377.53,169,377.53,377.53c0,160.46-100,297.5-241.14,352.17l91.71,340.37,71.28,264.54,16.27,60.32,12.65,47H1838ZM1241.86,1260.67c0-508.47,415.92-924.52,924.39-924.52,254.31,0,485.32,104,652.85,271.68,167.58,167.52,271.68,398.67,271.68,652.84v188.86c-260.14-187.3-579.43-297.62-924.46-297.62S1502,1262.23,1241.86,1449.53Z" transform="translate(-582.27)"/></svg>