<svg id="Stage_1" xmlns="http://www.w3.org/2000/svg" viewBox="0 0 4320 4320"><defs><style>.cls-1{fill:#6cc5d4;}.cls-2{fill:#fff;}</style></defs><title>Question mark</title><circle id="Circle" class="cls-1" cx="2160" cy="2160" r="2160"/><path id="Question_mark"
                                                                                                                                                                                                                                                  class="cls-2" d="M1049.72,1407.3q0-211.38,135.43-428.28t395.27-359.24q259.82-142.36,606.25-142.4,322,0,568.48,118.93T3135.94,919.7q134.31,204.45,134.34,444.5,0,189-76.66,331.23T3011.53,1941Q2906,2044.39,2632.88,2288.85q-75.75,69.09-121.39,121.34t-67.88,95.73a465,465,0,0,0-34.49,86.85q-12.26,43.42-36.74,152.48-42.11,232.1-263.62,232-115.22,0-193.82-75.72t-78.63-224.91q0-187,57.68-324t153.14-240.49q95.41-103.55,257.48-246.07,142-124.68,205.23-188.18a638.34,638.34,0,0,0,106.54-141.4q43.26-78,43.31-169.26,0-178.15-132.14-300.64T2186.67,944.09q-244.26,0-359.73,124.52t-195.42,366.76q-75.49,247.89-286.43,247.88-124.35,0-209.89-87.17T1049.72,1407.3ZM2133.16,3842.62q-135.21,0-235.93-87.62t-100.78-245.09q0-139.74,97.43-235.11t239.28-95.4q139.49,0,234.78,95.4t95.24,235.11q0,155.28-99.68,244T2133.16,3842.62Z" transform="translate(0 0)"/></svg>