<svg id="Stage_1" xmlns="http://www.w3.org/2000/svg" viewBox="0 0 4320 1844.57"><defs><style>.cls-1{fill:#1d1d1b;}</style></defs><title>Password show</title><path id="Outher_eye" class="cls-1" d="M4242,1831.43c-527.66-514.25-1224.72-813.62-1962.7-842.88-39.55-1.59-79.71-2.37-119.33-2.37s-79.78.78-119.33,2.37c-738,29.26-1435,328.63-1962.7,842.88l-78,76,78,76c535.73,522.29,1241.45,822.68,1987.18,845.85,31.91,1,63.82,1.49,94.85,1.49s62.94-.5,94.85-1.49C3000.58,2806.09,3706.3,2505.7,4242,1983.41l78-76ZM2251.56,2723.2c-30.74.92-61.56,1.42-91.56,1.42s-60.81-.5-91.56-1.42C1348.15,2700.81,669,2411.42,152.05,1907.42c509.16-496.21,1179.89-784.54,1892.83-812.84,38.17-1.52,76.91-2.27,115.12-2.27s76.95.75,115.12,2.27c712.94,28.3,1383.67,316.63,1892.83,812.84C3651,2411.42,2971.85,2700.81,2251.56,2723.2Z" transform="translate(0 -986.18)"/><path id="Inner_eye"
                                                                                                                                                                                                                                                                                                                                                                                                                                                                                                                                                                                                                                                                                                                                                                                                                                                                          class="cls-1" d="M2818.6,1328.46c-139.5-158.56-331-261.48-539.34-289.81l-5-.68-5.1-.21c-36.19-1.41-72.91-2.16-109.14-2.16s-72.91.75-109.11,2.16l-5.09.21-5,.68c-208.31,28.33-399.84,131.25-539.34,289.81a877,877,0,0,0,7.78,1166.91c144.77,160.15,342.21,261.05,556,284.05l4,.42,4,.11c29,.92,58.23,1.38,86.71,1.38s57.7-.46,86.75-1.38l4-.11,4-.42c213.79-23,411.27-123.9,556-284.05a877.07,877.07,0,0,0,7.79-1166.91ZM2243.46,2673.88q-41.67,1.27-83.46,1.31t-83.42-1.31c-386.43-41.56-687.39-368.81-687.39-766.35,0-390.11,289.81-712.55,665.91-763.71q104.87-4.14,209.83,0c376.07,51.16,665.88,373.6,665.88,763.71C2930.81,2305.07,2629.89,2632.32,2243.46,2673.88Z" transform="translate(0 -986.18)"/><path id="Main_eye"
                                                                                                                                                                                                                                                                                                                                                                                                                                                                                                                                                                                                                                                                                                                                                                                                                                                                                                                                                                                                                                                                                                                                                                                                                                                                                                                                                                                                                                                                                                                                                                                           class="cls-1" d="M2743,1908.45c0,322-261,583-583,583s-583-261-583-583a580.1,580.1,0,0,1,53.77-244.78,213,213,0,0,0,139.46,51.72c118.16,0,213.93-95.77,213.93-213.93a213,213,0,0,0-45.85-132.38A581.13,581.13,0,0,1,2160,1325.45C2482,1325.45,2743,1586.47,2743,1908.45Z" transform="translate(0 -986.18)"/></svg>