<svg id="Stage_1" xmlns="http://www.w3.org/2000/svg" viewBox="0 0 4320.39 2483.6"><defs><style>.cls-1{fill:#1d1d1b;}</style></defs><title>Password hide</title><path id="Outher_eye" class="cls-1" d="M4242,2408.2A2972.79,2972.79,0,0,0,3156.7,1733.41l-83.36,83.36c407.42,135.83,781.54,362.34,1094.59,667.43-448.6,437.35-1019.26,713.11-1633,793.07q-140.43,18.26-283.58,22.78c-30.75.92-61.56,1.42-91.57,1.42s-60.82-.5-91.56-1.42q-143-4.46-283.58-22.78-74.69-9.76-148.5-23.32l-90.26,90.26a2983.53,2983.53,0,0,0,519,61.92c31.91,1,63.82,1.48,94.85,1.48s62.95-.49,94.86-1.48C3000.46,3383,3706.24,3082.53,4242,2560.2l78-76ZM1779.17,1694q131.57-17.4,265.5-22.75c38.18-1.52,76.92-2.26,115.13-2.26s77,.74,115.13,2.26q133.84,5.31,265.5,22.75,71.91,9.49,143,22.54l90.33-90.33a3002.1,3002.1,0,0,0-494.6-61c-39.55-1.59-79.71-2.37-119.34-2.37s-79.78.78-119.34,2.37c-738,29.26-1435.16,328.66-1962.87,843l-78,76,78,76c312.59,304.74,683.06,534,1085.6,676.63l83.32-83.33c-406.71-136-780.69-363-1094.84-669.3C597.16,2050,1166.3,1775,1779.17,1694Z" transform="translate(0.39 -1243.43)"/><path id="Inner_eye"
                                                                                                                                                                                                                                                                                                                                                                                                                                                                                                                                                                                                                                                                                                                                                                                                                                                                                                                                                                                                                                               class="cls-1" d="M2890.67,1999.44l-76.78,76.78a767,767,0,0,1,116.8,408.08c0,397.58-301,724.86-687.42,766.43q-41.67,1.28-83.47,1.31t-83.43-1.31a765.7,765.7,0,0,1-324.65-112.33l-76.82,76.81A872.81,872.81,0,0,0,2065,3356.27l4,.43,4,.1c29.05.92,58.24,1.38,86.72,1.38s57.71-.46,86.76-1.38l4-.1,4-.43a877.16,877.16,0,0,0,636.08-1356.83ZM2054.9,1720.53q104.86-4.14,209.84,0a765.65,765.65,0,0,1,304.32,110.39l76.74-76.74a874,874,0,0,0-366.73-138.84l-5-.67-5.1-.21c-36.19-1.42-72.92-2.16-109.15-2.16s-72.92.74-109.11,2.16l-5.1.21-5,.67a877.17,877.17,0,0,0-610.89,1355l76.74-76.74a767.35,767.35,0,0,1-117.5-409.26C1388.92,2094.16,1678.76,1771.69,2054.9,1720.53Z" transform="translate(0.39 -1243.43)"/><path id="Main_eye_2"
                                                                                                                                                                                                                                                                                                                                                                                                                                                                                                                                                                                                                                                                                                                                                                                                                                                                                                                                                                                                                                                                                                                                                                                                                                                                                                                                                                                                                                                                                                                                                                                                                                                                                                                                                                        class="cls-1" d="M2742.85,2485.23c0,322-261,583-583,583a580.69,580.69,0,0,1-271.19-66.76L2676.08,2214A580.62,580.62,0,0,1,2742.85,2485.23Z" transform="translate(0.39 -1243.43)"/><path id="Main_eye_1"
                                                                                                                                                                                                                                                                                                                                                                                                                                                                                                                                                                                                                                                                                                                                                                                                                                                                                                                                                                                                                                                                                                                                                                                                                                                                                                                                                                                                                                                                                                                                                                                                                                                                                                                                                                                                                                                                                                                                                                class="cls-1" d="M2431,1969l-787.44,787.48a584.06,584.06,0,0,1-13-516A212.9,212.9,0,0,0,1770,2292.15c118.17,0,214-95.78,214-214a213.09,213.09,0,0,0-45.86-132.4A584.49,584.49,0,0,1,2431,1969Z" transform="translate(0.39 -1243.43)"/><rect id="Stroke" x="462.43" y="2426.4" width="3394.68" height="117.65" transform="translate(-1124.34 1011.67) rotate(-45)"/></svg>