<svg id="Stage_1" xmlns="http://www.w3.org/2000/svg" viewBox="0 0 3962.84 4317.21"><defs><style>.cls-1{fill:#a0a2ab;}</style></defs><title>User</title><path id="User" class="cls-1" d="M4141.42,3102.15A2225.68,2225.68,0,0,1,3844.5,3545c-404.11,469.77-1001.07,768.64-1667.9,773.53-5.53,0-11,0-16.6,0s-11.07,0-16.6,0C1476.54,4313.67,879.59,4014.8,475.48,3545a2226.45,2226.45,0,0,1-296.9-442.88C590.14,2757.56,1092.76,2518.23,1645,2425.5V2223c-387.81-190.56-654.72-589.68-654.72-1051.17C990.32,525.42,1514,1.4,2160,1.4s1169.66,524,1169.66,1170.43c0,461.49-266.92,860.63-654.73,1051.19V2425.5C3227.24,2518.23,3729.83,2757.56,4141.42,3102.15Z" transform="translate(-178.58 -1.4)"/></svg>